<?xml version="1.0" encoding="iso-8859-1"?>
<!-- Uploaded to: SVG Repo, www.svgrepo.com, Generator: SVG Repo Mixer Tools -->
<svg height="800px" width="800px" version="1.1" id="Layer_1" xmlns="http://www.w3.org/2000/svg" xmlns:xlink="http://www.w3.org/1999/xlink" 
	 viewBox="0 0 510.288 510.288" xml:space="preserve">
<g>
	<path style="fill:#2D2D2D;" d="M69.004,404.816c0,85.624,0,105.472,0,105.472s182.408,0,181.792,0l-88.72-192.336
		C162.076,317.952,69.004,319.192,69.004,404.816z"/>
	<path style="fill:#2D2D2D;" d="M441.276,404.816c0-85.624-93.064-86.864-93.064-86.864l-88.72,192.336
		c-0.624,0,181.792,0,181.792,0S441.276,490.44,441.276,404.816z"/>
</g>
<polygon style="fill:#DB2B42;" points="319.044,317.952 255.14,317.952 191.236,317.952 255.14,459.416 "/>
<circle style="fill:#2D2D2D;" cx="255.14" cy="139.04" r="42.352"/>
<path style="fill:#8AD5DD;" d="M338.796,25.976l-34.8,28.472c-7.28-3.832-15.096-6.776-23.336-8.632L276.084,0h-20.856h-0.176
	h-20.856l-4.584,45.816c-8.24,1.856-16.056,4.8-23.336,8.632l-34.8-28.472L141.98,55.472l27.376,33.456
	c-4.752,7.688-8.464,16.08-10.896,25.016l-42.456,4.248v41.712l42.52,4.248c2.448,8.904,6.112,17.304,10.856,24.984l-27.392,33.48
	l29.496,29.496l34.792-28.464c7.28,3.832,15.104,6.768,23.344,8.632l4.584,45.816h20.856h0.176h20.856l4.584-45.816
	c8.24-1.856,16.056-4.8,23.336-8.632l34.792,28.464l29.496-29.496l-27.392-33.48c4.744-7.68,8.408-16.072,10.856-24.984l42.52-4.248
	v-41.712l-42.456-4.248c-2.424-8.936-6.144-17.328-10.896-25.016l27.376-33.456L338.796,25.976z M255.14,201.784
	c-34.656,0-62.744-28.088-62.744-62.744s28.088-62.744,62.744-62.744c34.648,0,62.744,28.088,62.744,62.744
	S289.788,201.784,255.14,201.784z"/>
</svg>