<?xml version="1.0" ?><svg xmlns="http://www.w3.org/2000/svg" xmlns:xlink="http://www.w3.org/1999/xlink" version="1.1" id="Layer_1" viewBox="0 0 1000 1000" style="enable-background:new 0 0 1000 1000;" xml:space="preserve"><style type="text/css">
	.st0{fill:#12131A;}
	.st1{fill:#ED892F;}
</style><g><g><path class="st1" d="M700.46,647.88h-83.83c-10.74,0-19.53-8.79-19.53-19.53s8.79-19.53,19.53-19.53h83.83    c29.14,0,56.32-11.23,76.83-31.74c20.51-20.51,31.9-47.86,31.9-76.99c0-59.9-48.83-108.73-108.73-108.73H565.52    c-29.14,0-56.32,11.23-76.83,31.74c-20.51,20.51-31.74,47.86-31.74,76.83c0,10.74-8.79,19.53-19.53,19.53s-19.53-8.79-19.53-19.53    c0-39.55,15.3-76.67,43.3-104.5c28-27.83,64.95-43.3,104.5-43.3h134.94c81.55,0,147.8,66.25,147.8,147.8    c0,39.55-15.3,76.67-43.3,104.5S740.01,647.88,700.46,647.88z"/></g><g><path class="st0" d="M434.32,647.88H299.38c-81.55,0-147.8-66.25-147.8-147.8c0-39.55,15.3-76.67,43.3-104.5    s64.95-43.3,104.5-43.3h83.83c10.74,0,19.53,8.79,19.53,19.53s-8.79,19.53-19.53,19.53h-83.83c-29.14,0-56.32,11.23-76.83,31.74    s-31.9,47.86-31.9,76.99c0,59.9,48.83,108.73,108.73,108.73h134.94c29.14,0,56.32-11.23,76.83-31.74    c20.51-20.51,31.74-47.86,31.74-76.83c0-10.74,8.79-19.53,19.53-19.53s19.53,8.79,19.53,19.53c0,39.55-15.3,76.67-43.3,104.5    C510.66,632.58,473.87,647.88,434.32,647.88L434.32,647.88z"/></g></g></svg>