<svg class="svg-icon" style="width: 1em;height: 1em;" viewBox="0 0 900 900" xmlns="http://www.w3.org/2000/svg">
  <path
    d="M782.33 879.46H137c-42.46 0-77-34.54-77-77V157.13c0-42.46 34.54-77 77-77h645.33c42.46 0 77 34.54 77 77v645.33c0 42.46-34.54 77-77 77zM137 122.13c-19.3 0-35 15.7-35 35v645.33c0 19.3 15.7 35 35 35h645.33c19.3 0 35-15.7 35-35V157.13c0-19.3-15.7-35-35-35H137z"
    fill="#ffae14" />
  <path
    d="M393.35 724.29c-13.81 0-25-11.19-25-25v-384.8l-78.53 67.02c-10.5 8.96-26.28 7.71-35.25-2.79-8.96-10.5-7.71-26.28 2.79-35.25l119.76-102.2a24.992 24.992 0 0 1 26.7-3.68 24.991 24.991 0 0 1 14.53 22.7v439c0 13.81-11.19 25-25 25zM525.97 724.29c-3.55 0-7.12-0.75-10.47-2.3a24.991 24.991 0 0 1-14.53-22.7v-439c0-13.81 11.19-25 25-25s25 11.19 25 25v384.8l78.53-67.02c10.5-8.96 26.28-7.71 35.25 2.79 8.96 10.5 7.71 26.28-2.79 35.25L542.2 718.31a24.963 24.963 0 0 1-16.23 5.98z"
    fill="#ffae14" />
</svg>
